#!OML:ASF H:\Terrain\Patient Classification 1\Animal1\Tuesday\Animal1.ASF
:FULLY-SPECIFIED
:DEGREES
1722
root 4.62894 16.6829 -1.35622 -1052.9 -27.2338 -356.385
lowerback 31.6204 -1.87414 2.04849
upperback 0.914057 -1.34949 2.32715
thorax -15.5349 -0.666325 2.00191
lowerneck -7.06315 -0.0823847 -7.08719
upperneck -12.1872 0.675326 6.99561
head -2.80184 0.422534 3.60683
rclavicle -1.78906e-014 -6.36111e-015
rhumerus -64.2059 15.3217 -94.9841
rradius 57.2178
rwrist -57.7873
rhand 21.98 -358.953
rfingers 7.12502
rthumb 46.3749 -21.8895
lclavicle -1.78906e-014 -6.36111e-015
lhumerus -56.5728 1.89874 94.3883
lradius 35.394
lwrist 17.8159
lhand 39.2073 47.9553
lfingers 7.12502
lthumb 61.7348 59.7754
rfemur -71.7024 6.35585 15.3705
rtibia 53.0965
rfoot 25.766 12.7349
rtoes 4.41285
lfemur -55.6963 -10.3291 -17.2965
ltibia 60.3114
lfoot 26.4074 -9.80904
ltoes 22.7565
1723
root 4.5901 16.7056 -1.33615 -1052.63 -27.0654 -356.065
lowerback 31.4634 -1.95494 1.87537
upperback 0.875983 -1.52193 2.30103
thorax -15.5046 -0.728887 2.13567
lowerneck -6.97572 -0.0567454 -6.83049
upperneck -12.3204 0.67968 6.78696
head -2.85815 0.416199 3.48532
rclavicle -4.37326e-015 0
rhumerus -64.1503 15.0868 -94.883
rradius 57.2065
rwrist -57.6079
rhand 21.301 -359.215
rfingers 7.12502
rthumb 45.7451 -22.4154
lclavicle -4.37326e-015 0
lhumerus -56.6321 1.78965 94.3378
lradius 35.4048
lwrist 17.6736
lhand 39.6764 47.4832
lfingers 7.12502
lthumb 62.1264 58.8188
rfemur -71.8167 6.31668 15.0499
rtibia 52.8179
rfoot 25.7145 12.3219
rtoes 4.79391
lfemur -55.9327 -10.691 -17.2467
ltibia 60.094
lfoot 26.2413 -10.1366
ltoes 21.405
1724
root 4.55715 16.73 -1.30956 -1052.24 -27.1421 -356.305
lowerback 31.388 -1.9634 2.11336
upperback 0.916304 -1.46417 2.23098
thorax -15.4292 -0.724211 1.90226
lowerneck -6.92357 -0.0518183 -6.50077
upperneck -12.5155 0.659313 6.61574
head -2.92711 0.393307 3.36464
rclavicle 2.3059e-014 -1.35174e-014
rhumerus -63.9087 14.7076 -94.8733
rradius 56.9916
rwrist -57.2574
rhand 21.7086 -359.744
rfingers 7.12502
rthumb 46.1234 -22.7866
lclavicle 2.3059e-014 -1.35174e-014
lhumerus -56.7438 1.41163 94.3444
lradius 35.6247
lwrist 17.7552
lhand 40.0696 47.2542
lfingers 7.12502
lthumb 62.4529 58.1726
rfemur -71.7675 6.64073 15.129
rtibia 52.4625
rfoot 25.9958 11.1994
rtoes 7.42129
lfemur -55.9993 -10.6788 -16.8739
ltibia 59.9406
lfoot 26.1827 -10.1321
ltoes 21.5229
1725
root 4.52652 16.7446 -1.28845 -1051.88 -27.1908 -356.549
lowerback 31.4627 -1.98492 2.40394
upperback 0.915527 -1.40014 2.14394
thorax -15.4699 -0.720082 1.62479
lowerneck -7.05271 -0.03906 -6.28101
upperneck -12.5215 0.671622 6.59482
head -2.90379 0.391328 3.31444
rclavicle -4.49253e-014 6.08281e-014
rhumerus -63.7098 14.3578 -94.9209
rradius 56.7875
rwrist -57.0064
rhand 22.1134 -360.569
rfingers 7.12502
rthumb 46.4985 -23.4532
lclavicle -4.49253e-014 6.08281e-014
lhumerus -56.6959 1.2116 94.1898
lradius 35.5956
lwrist 17.675
lhand 40.5686 47.0752
lfingers 7.12502
lthumb 62.8649 57.4489
rfemur -71.664 6.9906 15.1661
rtibia 52.0748
rfoot 25.9855 10.8202
rtoes 7.69104
lfemur -56.1489 -10.5781 -16.5413
ltibia 59.8407
lfoot 26.3299 -10.5746
ltoes 21.1247
1726
root 4.49645 16.75 -1.2785 -1051.51 -27.1332 -356.74
lowerback 31.6832 -1.99162 2.58861
upperback 0.8644 -1.33149 2.1452
thorax -15.6315 -0.702761 1.5049
lowerneck -7.54017 -0.0438227 -6.04581
upperneck -12.133 0.654581 6.45406
head -2.67715 0.383535 3.21047
rclavicle 7.95139e-014 -3.37934e-014
rhumerus -63.7857 14.2073 -94.8954
rradius 57.0131
rwrist -57.0078
rhand 21.5625 -361.055
rfingers 7.12502
rthumb 45.9878 -24.1541
lclavicle 7.95139e-014 -3.37934e-014
lhumerus -56.5643 1.34668 93.9273
lradius 35.4278
lwrist 17.346
lhand 40.6325 47.2349
lfingers 7.12502
lthumb 62.9174 57.5377
rfemur -71.6591 7.27821 15.1758
rtibia 51.7127
rfoot 25.8416 11.0836
rtoes 5.95822
lfemur -56.4791 -10.4382 -16.2311
ltibia 59.7543
lfoot 26.4303 -12.3066
ltoes 18.4972
1727
root 4.46723 16.767 -1.26445 -1051.31 -27.0303 -356.846
lowerback 31.8587 -2.05127 2.78941
upperback 0.881036 -1.32488 2.16948
thorax -15.6916 -0.713237 1.42419
lowerneck -7.78402 -0.0705961 -5.97815
upperneck -11.9943 0.611109 6.32059
head -2.58128 0.365211 3.14711
rclavicle 4.8901e-014 -6.75868e-015
rhumerus -63.9129 14.1904 -94.8138
rradius 57.3866
rwrist -56.918
rhand 21.1479 -361.05
rfingers 7.12502
rthumb 45.6029 -24.3082
lclavicle 4.8901e-014 -6.75868e-015
lhumerus -56.4808 1.52653 93.7251
lradius 35.398
lwrist 17.1102
lhand 40.5414 47.6942
lfingers 7.12502
lthumb 62.8425 58.098
rfemur -71.5835 7.46799 15.1887
rtibia 51.4513
rfoot 25.7347 11.1061
rtoes 4.93114
lfemur -56.5924 -10.4102 -15.9439
ltibia 59.578
lfoot 26.7984 -13.0211
ltoes 19.2785
1728
root 4.43912 16.797 -1.23882 -1051.44 -27.1705 -356.413
lowerback 31.8894 -2.08871 2.60548
upperback 0.935461 -1.46674 2.00357
thorax -15.6406 -0.767232 1.40063
lowerneck -7.46863 -0.044173 -5.99603
upperneck -12.3188 0.641627 6.31491
head -2.75071 0.37597 3.15543
rclavicle 3.81667e-014 -2.34566e-014
rhumerus -63.9368 14.1333 -94.8121
rradius 57.5642
rwrist -56.6286
rhand 20.9692 -361.202
rfingers 7.12502
rthumb 45.4369 -24.5272
lclavicle 3.81667e-014 -2.34566e-014
lhumerus -56.4302 1.62594 93.502
lradius 35.4164
lwrist 17.0068
lhand 40.524 47.6884
lfingers 7.12502
lthumb 62.8281 58.1115
rfemur -71.4866 7.48703 14.6945
rtibia 51.3053
rfoot 25.6399 11.1246
rtoes 4.70745
lfemur -56.3498 -10.5266 -16.2887
ltibia 59.2852
lfoot 27.3856 -12.3767
ltoes 21.1705
1729
root 4.41088 16.817 -1.21356 -1051.45 -27.3865 -355.913
lowerback 31.7537 -2.05433 2.28317
upperback 0.938698 -1.56944 1.84444
thorax -15.5745 -0.79441 1.43995
lowerneck -7.27195 -0.0258479 -6.01176
upperneck -12.4325 0.657637 6.26426
head -2.8256 0.383251 3.14356
rclavicle 5.00937e-014 -8.50798e-014
rhumerus -63.8874 14.0024 -94.829
rradius 57.5074
rwrist -56.3185
rhand 21.1843 -360.281
rfingers 7.12502
rthumb 45.6367 -23.5255
lclavicle 5.00937e-014 -8.50798e-014
lhumerus -56.3551 1.7154 93.3083
lradius 35.2872
lwrist 16.7647
lhand 40.7547 47.1956
lfingers 7.12502
lthumb 63.0177 57.3618
rfemur -71.553 7.45972 14.1328
rtibia 51.2016
rfoot 25.5381 11.3679
rtoes 3.87899
lfemur -56.2636 -10.5917 -16.7211
ltibia 58.9591
lfoot 27.6847 -11.9341
ltoes 21.1285
1730
root 4.38065 16.826 -1.19596 -1051.28 -27.4218 -355.942
lowerback 31.7698 -2.06616 2.26872
upperback 0.940208 -1.58416 1.87532
thorax -15.5788 -0.798572 1.48818
lowerneck -7.35368 -0.0162399 -6.11146
upperneck -12.2686 0.676959 6.28241
head -2.75742 0.398919 3.16577
rclavicle -1.94809e-014 -5.96354e-015
rhumerus -63.8459 14.0298 -94.9096
rradius 57.4393
rwrist -56.0356
rhand 21.5766 -359.191
rfingers 7.12502
rthumb 46.0009 -22.2849
lclavicle -1.94809e-014 -5.96354e-015
lhumerus -56.3112 2.07507 93.0822
lradius 35.1575
lwrist 16.2193
lhand 39.9838 46.3523
lfingers 7.12502
lthumb 62.3818 57.3626
rfemur -71.4231 7.64454 14.0209
rtibia 51.0416
rfoot 25.4648 11.1119
rtoes 3.48801
lfemur -56.2316 -10.5198 -16.5743
ltibia 58.6584
lfoot 27.6362 -11.9565
ltoes 20.3481
1731
root 4.34374 16.8513 -1.17421 -1051.5 -27.2809 -356.064
lowerback 32.2298 -2.16618 2.33316
upperback 1.00538 -1.65967 1.96294
thorax -15.7028 -0.831841 1.59231
lowerneck -7.43197 0.0456526 -6.09647
upperneck -12.1241 0.758661 6.26146
head -2.69931 0.441383 3.15308
rclavicle -4.53229e-014 -2.94201e-014
rhumerus -63.8613 14.2185 -95.0638
rradius 57.3899
rwrist -55.7608
rhand 21.2732 -360.12
rfingers 7.12502
rthumb 45.7193 -23.3306
lclavicle -4.53229e-014 -2.94201e-014
lhumerus -56.4207 2.52396 92.83
lradius 35.3161
lwrist 15.807
lhand 41.0944 48.5335
lfingers 7.12502
lthumb 63.2959 58.3145
rfemur -70.7307 7.88099 14.034
rtibia 50.7914
rfoot 25.436 10.3751
rtoes 3.69707
lfemur -55.6253 -10.4718 -16.4507
ltibia 58.3196
lfoot 27.4202 -12.6169
ltoes 17.4138
1732
root 4.30515 16.8891 -1.14056 -1051.96 -27.0854 -355.976
lowerback 32.7687 -2.29559 2.37994
upperback 1.10392 -1.78443 1.99925
thorax -15.8195 -0.886618 1.67286
lowerneck -7.52251 0.0672807 -6.0691
upperneck -11.934 0.778936 6.16902
head -2.61811 0.45444 3.11215
rclavicle -1.55052e-014 2.3059e-014
rhumerus -63.8448 14.374 -95.1641
rradius 57.2827
rwrist -55.5425
rhand 20.868 -361.072
rfingers 7.12502
rthumb 45.3428 -24.4354
lclavicle -1.55052e-014 2.3059e-014
lhumerus -56.5359 2.79986 92.6049
lradius 35.4744
lwrist 15.9316
lhand 41.254 48.6255
lfingers 7.12502
lthumb 63.4262 58.2225
rfemur -69.8544 7.83887 14.1789
rtibia 50.4775
rfoot 25.0077 11.1293
rtoes -0.42438
lfemur -54.7365 -10.5798 -16.5711
ltibia 57.9707
lfoot 27.5305 -12.7957
ltoes 15.9301
